/vscmnt/brussel_pixiu_data/_data_brussel/112/vsc11236/PredSimResults/SUBJ11opt3D/weighted-trackIG/worker_03.mot
version=1
nRows=4
nColumns=50
inDegrees=yes
endheader
                time	         pelvis_tilt	         pelvis_list	     pelvis_rotation	           pelvis_tx	           pelvis_ty	           pelvis_tz	       hip_flexion_r	     hip_adduction_r	      hip_rotation_r	        knee_angle_r	       ankle_angle_r	         mtp_angle_r	       hip_flexion_l	     hip_adduction_l	      hip_rotation_l	        knee_angle_l	       ankle_angle_l	         mtp_angle_l	    lumbar_extension	      lumbar_bending	     lumbar_rotation	 ercspn_r/activation	 intobl_r/activation	 extobl_r/activation	    abd_r/activation	    add_r/activation	hamstrings_r/activation	bifemsh_r/activation	glut_max_r/activation	iliopsoas_r/activation	rect_fem_r/activation	  vasti_r/activation	gastroc_r/activation	 soleus_r/activation	tib_ant_r/activation	 ercspn_l/activation	 intobl_l/activation	 extobl_l/activation	    abd_l/activation	    add_l/activation	hamstrings_l/activation	bifemsh_l/activation	glut_max_l/activation	iliopsoas_l/activation	rect_fem_l/activation	  vasti_l/activation	gastroc_l/activation	 soleus_l/activation	tib_ant_l/activation	
          0.00000000	         -2.76709757	         -1.27562275	          5.61490681	          0.00000000	          0.94198688	         -0.00549356	         30.72308702	         -1.70741056	         -4.12321538	         -8.61321722	          1.87201142	          0.22516895	        -13.51950683	         -3.17995872	         -1.07195456	        -11.14266609	         13.55830805	         27.78135544	        -14.55189121	         -2.62380584	         -3.26050551	          0.03144170	          0.28345237	          0.07497687	          0.01000000	          0.19186793	          0.04353438	          0.17729931	          0.02960851	          0.12067183	          0.04463990	          0.01901438	          0.00999999	          0.00999999	          0.39796615	          0.00999999	          0.00999999	          0.00999999	          0.04276662	          0.01000000	          0.01998046	          0.31664559	          0.02822730	          0.18418497	          0.01000001	          0.01000000	          0.17503144	          0.34656756	          0.01625405	
          0.01383888	         -2.91353885	         -1.31827590	          5.79563132	          0.01820152	          0.93960488	         -0.00431836	         30.75337019	         -1.54962631	         -4.28496615	        -10.01706462	          1.34724928	          0.24319507	        -14.14926223	         -3.43146995	         -1.32913212	        -11.68743172	         12.87945229	         29.53189614	        -14.13455901	         -2.11211964	         -3.45818405	          0.02554890	          0.23032774	          0.06092471	          0.00999999	          0.25172821	          0.03537518	          0.14406988	          0.09546526	          0.09805552	          0.03627350	          0.01545070	          0.01230656	          0.01230649	          0.42275778	          0.01227556	          0.00999999	          0.00999999	          0.03475130	          0.07276106	          0.02416697	          0.27476708	          0.02293694	          0.24520749	          0.01000001	          0.01000000	          0.15650836	          0.32878549	          0.01320772	
          0.02767776	         -3.03655827	         -1.37936873	          5.95993379	          0.03693353	          0.93749613	         -0.00309652	         30.64339445	         -1.40713775	         -4.33057000	        -11.54130087	          0.88118415	          0.20643594	        -14.67224169	         -3.71317490	         -1.59672529	        -12.49466062	         12.05169711	         31.37961933	        -13.67031191	         -1.56896378	         -3.65709363	          0.02076053	          0.18715972	          0.04950620	          0.03685495	          0.21078758	          0.04821502	          0.11706831	          0.12847642	          0.07967795	          0.02947512	          0.01255493	          0.01000007	          0.01000001	          0.48525957	          0.01000003	          0.00999999	          0.01000001	          0.02823821	          0.05912420	          0.02428283	          0.22942115	          0.01863810	          0.19925074	          0.01000001	          0.01000000	          0.12717557	          0.30515399	          0.01073233	
          0.04151665	         -3.13984650	         -1.43679948	          6.09505445	          0.05586739	          0.93587243	         -0.00178923	         30.48044459	         -1.27806516	         -4.46889687	        -12.99445553	          0.24708686	          0.18173719	        -14.99953026	         -4.00016596	         -1.88161522	        -13.66692435	         11.03018030	         33.33135517	        -13.19805455	         -1.02791120	         -3.84547871	          0.02593666	          0.15208225	          0.04022775	          0.07794282	          0.26087971	          0.04626032	          0.09512738	          0.13885965	          0.06474471	          0.02395090	          0.01020189	          0.00999999	          0.00999999	          0.53949039	          0.03298808	          0.00999999	          0.01000000	          0.02294581	          0.04804317	          0.02745328	          0.18642309	          0.01514495	          0.20297494	          0.01000000	          0.00999999	          0.10334033	          0.27696247	          0.00999999	
